#tb 0: 1/30
#media_type 0: video
#codec_id 0: rawvideo
#dimensions 0: 320x240
#sar 0: 0/1
0,          0,          0,        1,   115200, 0x2c810465
0,          1,          1,        1,   115200, 0x010b5765
0,          2,          2,        1,   115200, 0x2be11a4e
0,          3,          3,        1,   115200, 0x99445d06
0,          4,          4,        1,   115200, 0x6b54d83c
0,          5,          5,        1,   115200, 0x3832b76a
0,          6,          6,        1,   115200, 0x3832b76a
0,          7,          7,        1,   115200, 0xe18385db
0,          8,          8,        1,   115200, 0x847d4bf0
0,          9,          9,        1,   115200, 0x0d650f50
0,         10,         10,        1,   115200, 0x4b85c44c
0,         11,         11,        1,   115200, 0xce1927a6
0,         12,         12,        1,   115200, 0x89353747
0,         13,         13,        1,   115200, 0x58da43f2
0,         14,         14,        1,   115200, 0xee9a4eef
0,         15,         15,        1,   115200, 0xce9453d9
0,         16,         16,        1,   115200, 0x804a5eb0
0,         17,         17,        1,   115200, 0xb3d46605
0,         18,         18,        1,   115200, 0x45b5668e
0,         19,         19,        1,   115200, 0xdd0d4c5a
0,         20,         20,        1,   115200, 0x99101301
0,         21,         21,        1,   115200, 0xf0c3f272
0,         22,         22,        1,   115200, 0xea21f8b1
0,         23,         23,        1,   115200, 0xd8e7fbb1
0,         24,         24,        1,   115200, 0x89d90aa1
0,         25,         25,        1,   115200, 0x882e19da
0,         26,         26,        1,   115200, 0xfc0f2709
0,         27,         27,        1,   115200, 0x9b732f3f
0,         28,         28,        1,   115200, 0xec453cda
0,         29,         29,        1,   115200, 0xa77e4989
0,         30,         30,        1,   115200, 0xad935834
0,         31,         31,        1,   115200, 0x3a5a6177
0,         32,         32,        1,   115200, 0xd3c07999
0,         33,         33,        1,   115200, 0xfad388dd
0,         34,         34,        1,   115200, 0xaf6e9520
0,         35,         35,        1,   115200, 0xdb64a4b3
0,         36,         36,        1,   115200, 0xc6f9b49e
0,         37,         37,        1,   115200, 0x4446c315
0,         38,         38,        1,   115200, 0x660bd01c
0,         39,         39,        1,   115200, 0x963fdd7d
0,         40,         40,        1,   115200, 0x8733e7b3
0,         41,         41,        1,   115200, 0x41aaf1d5
0,         42,         42,        1,   115200, 0xa803fd81
0,         43,         43,        1,   115200, 0xe2b4077f
0,         44,         44,        1,   115200, 0xfe6707cb
0,         45,         45,        1,   115200, 0x027c122d
0,         46,         46,        1,   115200, 0xbcb81ea8
0,         47,         47,        1,   115200, 0xd2ac2405
0,         48,         48,        1,   115200, 0x3d893006
0,         49,         49,        1,   115200, 0xbdcc3ba8
0,         50,         50,        1,   115200, 0x83ed4c6b
0,         51,         51,        1,   115200, 0x69ee5e7c
0,         52,         52,        1,   115200, 0xfe317411
0,         53,         53,        1,   115200, 0x849e84e6
0,         54,         54,        1,   115200, 0x040f945f
0,         55,         55,        1,   115200, 0x6481ac89
0,         56,         56,        1,   115200, 0x8a48be9e
0,         57,         57,        1,   115200, 0xb162ce94
0,         58,         58,        1,   115200, 0x178dd69a
0,         59,         59,        1,   115200, 0x64fdecaa
0,         60,         60,        1,   115200, 0x4b51297e
0,         61,         61,        1,   115200, 0x3d39a1ae
0,         62,         62,        1,   115200, 0x900fd939
0,         63,         63,        1,   115200, 0x7704fb19
0,         64,         64,        1,   115200, 0xa426137e
0,         65,         65,        1,   115200, 0x9a112706
0,         66,         66,        1,   115200, 0x294931f7
0,         67,         67,        1,   115200, 0x0d0e4372
0,         68,         68,        1,   115200, 0x33bd50e4
0,         69,         69,        1,   115200, 0x9c86e3e2
0,         70,         70,        1,   115200, 0x714af5d5
0,         71,         71,        1,   115200, 0xc5f9fcd0
0,         72,         72,        1,   115200, 0x184602bb
0,         73,         73,        1,   115200, 0x6958e9e6
0,         74,         74,        1,   115200, 0x5a214952
0,         75,         75,        1,   115200, 0x706cca0e
0,         76,         76,        1,   115200, 0x67689363
0,         77,         77,        1,   115200, 0x459f410c
0,         78,         78,        1,   115200, 0xa8f4c365
0,         79,         79,        1,   115200, 0xf1fc50c5
0,         80,         80,        1,   115200, 0xc22af545
0,         81,         81,        1,   115200, 0xd39802a2
0,         82,         82,        1,   115200, 0xb76c04b6
0,         83,         83,        1,   115200, 0x7a548db4
0,         84,         84,        1,   115200, 0x79e56765
0,         85,         85,        1,   115200, 0x3f273a17
0,         86,         86,        1,   115200, 0xe04366db
0,         87,         87,        1,   115200, 0x8e10939b
0,         88,         88,        1,   115200, 0x49220ea2
0,         89,         89,        1,   115200, 0x35361889
0,         90,         90,        1,   115200, 0x9b20bdfa
0,         91,         91,        1,   115200, 0x5d472eaf
0,         92,         92,        1,   115200, 0xeda43081
0,         93,         93,        1,   115200, 0x59bae8b4
0,         94,         94,        1,   115200, 0xf126d6a4
0,         95,         95,        1,   115200, 0x18106464
0,         96,         96,        1,   115200, 0x85530c73
0,         97,         97,        1,   115200, 0xcef32c78
0,         98,         98,        1,   115200, 0xfd6233a0
0,         99,         99,        1,   115200, 0xae9d6fc3
0,        100,        100,        1,   115200, 0x3d0cce10
0,        101,        101,        1,   115200, 0xfce5f124
0,        102,        102,        1,   115200, 0x90b10802
0,        103,        103,        1,   115200, 0xeea44201
0,        104,        104,        1,   115200, 0x1cefb56d
0,        105,        105,        1,   115200, 0xd6daa0b1
0,        106,        106,        1,   115200, 0xd700cef4
0,        107,        107,        1,   115200, 0x36dbf58f
0,        108,        108,        1,   115200, 0xdb20d060
0,        109,        109,        1,   115200, 0x5ca61fd5
0,        110,        110,        1,   115200, 0x4f271361
0,        111,        111,        1,   115200, 0xcaf03743
0,        112,        112,        1,   115200, 0x520f351a
0,        113,        113,        1,   115200, 0x40bc7b89
0,        114,        114,        1,   115200, 0xd0af0b08
0,        115,        115,        1,   115200, 0x6a45290c
0,        116,        116,        1,   115200, 0x57210c14
0,        117,        117,        1,   115200, 0xc1e233f9
0,        118,        118,        1,   115200, 0x96fdfc54
0,        119,        119,        1,   115200, 0x43a8359c
0,        120,        120,        1,   115200, 0xd493bfde
0,        121,        121,        1,   115200, 0xd5339d13
0,        122,        122,        1,   115200, 0x7542baa0
0,        123,        123,        1,   115200, 0x268d2cb9
0,        124,        124,        1,   115200, 0xaf3888bb
0,        125,        125,        1,   115200, 0xb82f520a
0,        126,        126,        1,   115200, 0x0feb2981
0,        127,        127,        1,   115200, 0x45314b58
0,        128,        128,        1,   115200, 0xb26a193a
0,        129,        129,        1,   115200, 0xdfdffc38
0,        130,        130,        1,   115200, 0xec6a55f5
0,        131,        131,        1,   115200, 0xf6e35716
0,        132,        132,        1,   115200, 0x5ce8544e
0,        133,        133,        1,   115200, 0x3e38ddce
0,        134,        134,        1,   115200, 0x964a2006
0,        135,        135,        1,   115200, 0xaba138d6
0,        136,        136,        1,   115200, 0x2f46949c
0,        137,        137,        1,   115200, 0xbdbdb587
0,        138,        138,        1,   115200, 0x1bf11e1d
0,        139,        139,        1,   115200, 0x2632f558
0,        140,        140,        1,   115200, 0x0e58078b
0,        141,        141,        1,   115200, 0x2ab2f9be
0,        142,        142,        1,   115200, 0x9205f1d8
0,        143,        143,        1,   115200, 0x6a4bd949
0,        144,        144,        1,   115200, 0xedc1552f
0,        145,        145,        1,   115200, 0x0a60974d
0,        146,        146,        1,   115200, 0xe1a1400e
0,        147,        147,        1,   115200, 0x45f06952
0,        148,        148,        1,   115200, 0xc5163125
0,        149,        149,        1,   115200, 0x151da156
0,        150,        150,        1,   115200, 0x3f34b048
0,        151,        151,        1,   115200, 0xcf7c1e5d
0,        152,        152,        1,   115200, 0xed9c4e1c
0,        153,        153,        1,   115200, 0x47e06453
0,        154,        154,        1,   115200, 0xc8ce6f19
0,        155,        155,        1,   115200, 0xac619619
0,        156,        156,        1,   115200, 0x64711e2d
0,        157,        157,        1,   115200, 0x1f502b52
0,        158,        158,        1,   115200, 0x39592c9d
0,        159,        159,        1,   115200, 0x7dffb901
0,        160,        160,        1,   115200, 0xc75fa3ce
0,        161,        161,        1,   115200, 0x625bc977
0,        162,        162,        1,   115200, 0x15c7fda3
0,        163,        163,        1,   115200, 0x6e5d35b5
0,        164,        164,        1,   115200, 0xf847cf88
0,        165,        165,        1,   115200, 0xc10867fe
0,        166,        166,        1,   115200, 0xae07fbfc
0,        167,        167,        1,   115200, 0xc1571542
0,        168,        168,        1,   115200, 0x4c7d5602
0,        169,        169,        1,   115200, 0xbe7045aa
0,        170,        170,        1,   115200, 0xc8b4835b
0,        171,        171,        1,   115200, 0xf9b7d427
0,        172,        172,        1,   115200, 0x7fa7c112
0,        173,        173,        1,   115200, 0xe0105feb
0,        174,        174,        1,   115200, 0x70784740
0,        175,        175,        1,   115200, 0xa6801ef5
0,        176,        176,        1,   115200, 0x9cf35921
0,        177,        177,        1,   115200, 0x4d956630
0,        178,        178,        1,   115200, 0x717a25c1
0,        179,        179,        1,   115200, 0x8f5e39de
